<?xml version="1.0" encoding="UTF-8"?>
<svg version="1.1" xmlns="http://www.w3.org/2000/svg" width="512" height="512">
<path d="M0 0 C168.96 0 337.92 0 512 0 C512 168.96 512 337.92 512 512 C343.04 512 174.08 512 0 512 C0 343.04 0 174.08 0 0 Z " fill="#000000" transform="translate(0,0)"/>
<path d="M0 0 C0.7386026 -0.00100708 1.4772052 -0.00201416 2.2381897 -0.00305176 C13.14017023 0.00701484 23.46165819 0.48714078 34.0625 3.25 C35.23554688 3.54003906 36.40859375 3.83007812 37.6171875 4.12890625 C63.62039092 11.04958066 88.66907369 23.19737286 107.0625 43.25 C108.2690625 44.425625 108.2690625 44.425625 109.5 45.625 C120.94892434 57.3531664 129.39843989 69.85019226 137.0625 84.25 C137.88427734 85.78914063 137.88427734 85.78914063 138.72265625 87.359375 C142.14917724 94.26724132 144.52659493 101.39753863 146.8125 108.75 C147.25360107 110.15584351 147.25360107 110.15584351 147.70361328 111.59008789 C151.53942746 124.40019691 152.47133756 137.02149905 152.4375 150.3125 C152.43728851 151.0817984 152.43707703 151.8510968 152.43685913 152.64370728 C152.40327129 164.91027396 151.48046039 176.4107787 148.0625 188.25 C147.76569336 189.32435303 147.76569336 189.32435303 147.46289062 190.42041016 C139.87128348 217.61138493 126.24399263 240.58598154 106.0625 260.25 C105.32966797 261.06791016 105.32966797 261.06791016 104.58203125 261.90234375 C95.14633504 272.08789662 82.48731889 280.20235024 70.0625 286.25 C69.26714844 286.6521875 68.47179687 287.054375 67.65234375 287.46875 C32.01283225 304.65503684 -9.71672915 308.12103402 -47.31542969 295.19335938 C-68.95497167 287.40795991 -89.11075282 276.22617575 -104.9375 259.25 C-105.72125 258.486875 -106.505 257.72375 -107.3125 256.9375 C-125.42601153 238.39271438 -137.26509974 216.91318285 -144.9375 192.25 C-145.23785156 191.28964844 -145.53820312 190.32929688 -145.84765625 189.33984375 C-149.57035553 176.63776932 -150.35057018 163.77171708 -150.3125 150.625 C-150.31162384 149.88021393 -150.31074768 149.13542786 -150.30984497 148.36807251 C-150.26303302 136.26159423 -149.33760651 124.90961379 -145.9375 113.25 C-145.70675781 112.41823242 -145.47601563 111.58646484 -145.23828125 110.72949219 C-137.73070159 84.1649742 -123.647947 61.46768582 -103.9375 42.25 C-103.36386719 41.61964844 -102.79023438 40.98929688 -102.19921875 40.33984375 C-76.63323933 13.04057758 -36.51065079 0.03442634 0 0 Z " fill="#FEFEFE" transform="translate(254.9375,104.75)"/>
</svg>
